<svg width="14" height="44" viewBox="0 0 14 44" fill="none" xmlns="http://www.w3.org/2000/svg">
<path d="M13.0729 17.6825C12.552 18.0014 12.1206 18.4473 11.8189 18.9783C11.5172 19.5094 11.3553 20.1083 11.3481 20.719C11.3502 21.4064 11.5538 22.078 11.9338 22.6508C12.3138 23.2236 12.8535 23.6723 13.486 23.9413C13.2366 24.7459 12.8676 25.5084 12.3912 26.2031C11.7096 27.1843 10.9969 28.1654 9.9125 28.1654C8.8281 28.1654 8.5492 27.5354 7.2995 27.5354C6.0808 27.5354 5.647 28.1861 4.6555 28.1861C3.664 28.1861 2.9721 27.2772 2.1768 26.1618C1.12627 24.5993 0.54891 22.7668 0.514 20.8842C0.514 17.7858 2.528 16.1437 4.5109 16.1437C5.5644 16.1437 6.4423 16.8356 7.1033 16.8356C7.7333 16.8356 8.7145 16.1023 9.9125 16.1023C10.5285 16.0864 11.1389 16.2223 11.69 16.4978C12.2411 16.7734 12.716 17.1802 13.0729 17.6825ZM9.3445 14.7907C9.8726 14.1695 10.1715 13.3859 10.1914 12.5707C10.1923 12.4633 10.1819 12.356 10.1604 12.2507C9.25326 12.3393 8.4144 12.7717 7.8159 13.4591C7.28271 14.0556 6.9725 14.8183 6.938 15.6176C6.9384 15.7148 6.94879 15.8117 6.969 15.9068C7.04051 15.9204 7.11312 15.9273 7.1859 15.9275C7.60397 15.8943 8.01092 15.7763 8.382 15.5809C8.75308 15.3855 9.08055 15.1166 9.3445 14.7907Z" fill="white"/>
</svg>
