<svg width="7" height="12" viewBox="0 0 7 12" fill="none" xmlns="http://www.w3.org/2000/svg">
<path d="M1.5086 11.4811C1.29528 11.4811 1.11292 11.4071 0.961525 11.2592C0.810132 11.1112 0.734436 10.9306 0.734436 10.7172C0.734436 10.5039 0.813573 10.3181 0.971847 10.1598L5.14202 5.99998L0.971847 1.84013C0.813573 1.68185 0.734436 1.49605 0.734436 1.28273C0.734436 1.0694 0.810132 0.888761 0.961525 0.740808C1.11292 0.592856 1.29528 0.518881 1.5086 0.518881C1.70817 0.518881 1.88708 0.591136 2.04536 0.735647L6.75229 5.42194C6.91745 5.57333 7.00002 5.76601 7.00002 5.99998C7.00002 6.22019 6.91745 6.41287 6.75229 6.57802L2.04536 11.2643C1.90085 11.4088 1.72193 11.4811 1.5086 11.4811Z" fill="#0066CC"/>
</svg>
