<svg width="14" height="44" viewBox="0 0 14 44" fill="none" xmlns="http://www.w3.org/2000/svg">
<path d="M11.3535 16.0283H10.333C10.2236 15.2173 9.82728 14.4723 9.21582 13.9284C8.60436 13.3845 7.81827 13.0776 7.00003 13.0635C6.18179 13.0776 5.3957 13.3845 4.78424 13.9284C4.17278 14.4723 3.77643 15.2173 3.66703 16.0283H2.64703C2.08582 16.0286 1.54769 16.2517 1.15078 16.6485C0.753865 17.0452 0.530612 17.5833 0.530029 18.1445V25.86C0.530532 26.4211 0.753634 26.9591 1.15038 27.356C1.54712 27.7528 2.08509 27.976 2.64623 27.9767H11.3532C11.9145 27.9762 12.4526 27.753 12.8495 27.3562C13.2463 26.9593 13.4695 26.4212 13.47 25.86V18.1445C13.4694 17.5834 13.2463 17.0454 12.8495 16.6486C12.4527 16.2519 11.9147 16.0288 11.3535 16.0283ZM7.00003 14.1631C7.52744 14.1745 8.03515 14.3656 8.43921 14.7048C8.84328 15.0439 9.11951 15.5108 9.22223 16.0283H4.77783C4.88055 15.5108 5.15678 15.0439 5.56085 14.7048C5.96491 14.3656 6.47262 14.1745 7.00003 14.1631ZM12.37 25.86C12.3697 26.1296 12.2626 26.388 12.072 26.5787C11.8814 26.7693 11.623 26.8767 11.3534 26.8771H2.64653C2.37697 26.8766 2.11859 26.7693 1.92804 26.5786C1.73749 26.388 1.63032 26.1295 1.63003 25.86V18.1445C1.63035 17.875 1.73755 17.6166 1.92814 17.426C2.11872 17.2354 2.37711 17.1282 2.64663 17.1279H11.3536C11.6231 17.1282 11.8815 17.2355 12.072 17.4261C12.2625 17.6166 12.3697 17.875 12.37 18.1445V25.86Z" fill="#DADADA"/>
</svg>
