<svg width="15" height="44" viewBox="0 0 15 44" fill="none" xmlns="http://www.w3.org/2000/svg">
<path d="M14.298 27.202L10.428 23.332C11.129 22.403 11.55 21.251 11.55 20C11.55 16.94 9.06095 14.45 5.99995 14.45C2.93995 14.45 0.449951 16.94 0.449951 20C0.449951 23.061 2.93995 25.55 5.99995 25.55C7.25095 25.55 8.40295 25.129 9.33195 24.428L13.202 28.298C13.353 28.449 13.552 28.526 13.75 28.526C13.948 28.526 14.146 28.45 14.298 28.298C14.601 27.995 14.601 27.505 14.298 27.202ZM1.54995 20C1.54995 17.546 3.54695 15.55 5.99995 15.55C8.45395 15.55 10.45 17.547 10.45 20C10.45 22.453 8.45395 24.45 5.99995 24.45C3.54595 24.45 1.54995 22.454 1.54995 20Z" fill="#DADADA"/>
</svg>
